<svg xmlns="http://www.w3.org/2000/svg" width="592" height="116" viewBox="0 0 592 116">
  <g fill="none">
    <g transform="translate(128 35)">
      <path fill="#FFF" d="M15.152,18.87 C10.431,18.87 7.245,22.47 7.245,27.013 C7.245,31.556 10.49,35.215 15.093,35.215 C17.984,35.215 20.285,34.212 22.055,32.442 L25.714,37.753 C23.472,40.23 19.4,42 14.916,42 C6.538,42 0.047,35.273 0.047,27.071 C0.047,18.81 6.538,12.084 14.798,12.084 C19.636,12.084 23.472,13.736 25.95,16.333 L21.82,21.466 C20.05,19.755 17.925,18.87 15.152,18.87 Z"/>
      <polygon fill="#FFF" points="31.14 .578 38.339 .578 38.339 41.174 31.14 41.174"/>
      <path fill="#FFF" d="M44.886,27.072 C44.886,18.811 51.022,12.085 59.165,12.085 C67.249,12.085 73.385,18.339 73.385,26.482 C73.385,27.367 73.326,28.37 73.208,28.842 L52.261,28.842 C52.969,32.795 55.978,35.628 60.345,35.628 C63.177,35.628 65.596,34.389 67.249,32.678 L70.966,37.575 C68.841,40.053 64.829,42 60.05,42 C51.259,42 44.886,35.274 44.886,27.072 Z M52.38,24.299 L66.01,24.299 C65.184,20.286 62.647,18.221 59.283,18.221 C55.684,18.221 53.206,20.699 52.38,24.299 Z"/>
      <polygon fill="#FFF" points="104.775 12.911 94.567 41.175 85.244 41.175 74.977 12.911 82.884 12.911 90.082 34.743 97.399 12.911"/>
      <path fill="#FFF" d="M106.778,27.072 C106.778,18.811 112.914,12.085 121.057,12.085 C129.141,12.085 135.277,18.339 135.277,26.482 C135.277,27.367 135.218,28.37 135.1,28.842 L114.153,28.842 C114.861,32.795 117.87,35.628 122.237,35.628 C125.069,35.628 127.488,34.389 129.141,32.678 L132.858,37.575 C130.733,40.053 126.721,42 121.942,42 C113.15,42 106.778,35.274 106.778,27.072 Z M114.271,24.299 L127.901,24.299 C127.075,20.286 124.538,18.221 121.174,18.221 C117.576,18.221 115.098,20.699 114.271,24.299 Z M148.669,41.174 L141.47,41.174 L141.47,12.91 L148.669,12.91 L148.669,15.978 C150.262,13.618 152.622,12.083 155.572,12.083 C157.46,12.083 158.994,12.614 160.115,13.499 L157.106,20.344 C156.162,19.577 154.746,19.105 153.389,19.105 C150.498,19.105 148.669,21.524 148.669,25.36 L148.669,41.174 Z M191.326,18.87 C186.605,18.87 183.419,22.47 183.419,27.013 C183.419,31.556 186.664,35.215 191.267,35.215 C194.158,35.215 196.459,34.212 198.229,32.442 L201.888,37.753 C199.646,40.232 195.575,42.002 191.09,42.002 C182.712,42.002 176.221,35.275 176.221,27.073 C176.221,18.812 182.712,12.086 190.972,12.086 C195.81,12.086 199.646,13.738 202.124,16.335 L197.994,21.468 C196.223,19.755 194.099,18.87 191.326,18.87 Z"/>
      <polygon fill="#FFF" points="207.313 .578 214.512 .578 214.512 41.174 207.313 41.174"/>
      <path fill="#FFF" d="M221.06,27.072 C221.06,18.811 227.551,12.085 235.752,12.085 C243.953,12.085 250.503,18.812 250.503,27.072 C250.503,35.274 243.953,42.001 235.752,42.001 C227.551,42.001 221.06,35.274 221.06,27.072 Z M243.246,27.013 C243.246,22.47 240.119,18.87 235.811,18.87 C231.444,18.87 228.258,22.47 228.258,27.013 C228.258,31.556 231.444,35.215 235.811,35.215 C240.118,35.215 243.246,31.556 243.246,27.013 Z M263.834,28.193 C263.834,32.323 266.253,35.097 269.853,35.097 C273.452,35.097 275.872,32.324 275.872,28.193 L275.872,12.911 L283.071,12.911 L283.071,28.724 C283.071,36.631 277.82,41.882 269.854,41.882 C261.888,41.882 256.637,36.631 256.637,28.724 L256.637,12.911 L263.836,12.911 L263.836,28.193 L263.834,28.193 Z M318.706,0.578 L318.706,41.174 L311.448,41.174 L311.448,38.106 C309.383,40.525 306.491,42.001 302.833,42.001 C295.339,42.001 289.262,35.864 289.262,27.072 C289.262,18.516 294.986,12.085 302.833,12.085 C306.55,12.085 309.441,13.442 311.448,15.743 L311.448,0.578 L318.706,0.578 Z M311.448,27.013 C311.448,22.47 308.321,18.87 304.013,18.87 C299.646,18.87 296.46,22.47 296.46,27.013 C296.46,31.556 299.646,35.215 304.013,35.215 C308.32,35.215 311.448,31.556 311.448,27.013 Z"/>
      <path fill="#A4A4BC" d="M334.944,41 L350.992,3.181 L358.367,3.181 L342.319,41 L334.944,41 Z M382.471,35.041 C386.778,35.041 389.905,31.383 389.905,26.84 C389.905,22.297 386.778,18.698 382.471,18.698 C378.105,18.698 374.919,22.297 374.919,26.84 C374.919,31.383 378.105,35.041 382.471,35.041 Z M389.905,0.408 L397.162,0.408 L397.162,41 L389.905,41 L389.905,37.932 C387.84,40.351 384.949,41.826 381.291,41.826 C373.798,41.826 367.721,35.69 367.721,26.899 C367.721,18.344 373.444,11.913 381.291,11.913 C385.008,11.913 387.899,13.27 389.905,15.571 L389.905,0.408 Z M418.302,41.826 C410.101,41.826 403.611,35.1 403.611,26.899 C403.611,18.639 410.101,11.913 418.302,11.913 C426.503,11.913 433.052,18.639 433.052,26.899 C433.052,35.1 426.503,41.826 418.302,41.826 Z M418.361,35.041 C422.668,35.041 425.795,31.383 425.795,26.84 C425.795,22.297 422.668,18.698 418.361,18.698 C413.995,18.698 410.809,22.297 410.809,26.84 C410.809,31.383 413.995,35.041 418.361,35.041 Z M459.384,21.294 C457.614,19.583 455.49,18.698 452.717,18.698 C447.997,18.698 444.811,22.297 444.811,26.84 C444.811,31.383 448.056,35.041 452.658,35.041 C455.549,35.041 457.85,34.038 459.62,32.268 L463.278,37.578 C461.036,40.056 456.965,41.826 452.481,41.826 C444.103,41.826 437.613,35.1 437.613,26.899 C437.613,18.639 444.103,11.913 452.363,11.913 C457.201,11.913 461.036,13.565 463.514,16.161 L459.384,21.294 Z"/>
    </g>
    <polygon fill="#AB2B4A" points="100.29 29.13 100.29 86.87 89.59 73.06 83.63 58 83.62 58 89.28 42.73"/>
    <polygon fill="#E87A68" points=".3 29.13 .3 86.87 9.75 73.48 16.96 58 16.96 58 9.64 43.32"/>
    <polygon fill="#D74D4E" points="83.62 58 52.11 60 16.96 58 31.63 29.13 50.29 .27 70.59 31.96"/>
    <polygon fill="#BD3246" points="100.29 29.13 83.62 58 50.29 .27"/>
    <polygon fill="#F19175" points="50.29 .27 16.96 58 .29 29.13"/>
    <polygon fill="#CF3942" points="83.62 58 72.23 82.93 50.29 115.74 27.71 81.83 16.96 58"/>
    <polygon fill="#E0625B" points="50.29 115.74 .29 86.87 16.96 58"/>
    <polygon fill="#9A244F" points="50.29 115.74 100.29 86.87 83.62 58"/>
  </g>
</svg>
