<?xml version="1.0" standalone="no"?>
<!DOCTYPE svg PUBLIC "-//W3C//DTD SVG 20010904//EN"
 "http://www.w3.org/TR/2001/REC-SVG-20010904/DTD/svg10.dtd">
<svg version="1.0" xmlns="http://www.w3.org/2000/svg"
 width="700.000000pt" height="700.000000pt" viewBox="0 0 700.000000 700.000000"
 preserveAspectRatio="xMidYMid meet">
<metadata>
Created by potrace 1.11, written by Peter Selinger 2001-2013
</metadata>
<g transform="translate(0.000000,700.000000) scale(0.100000,-0.100000)"
fill="#000000" stroke="none">
<path d="M3215 6947 c-27 -16 -63 -37 -80 -47 -32 -19 -445 -256 -720 -415
-93 -54 -282 -163 -420 -243 -137 -80 -265 -153 -283 -164 -69 -38 -1009 -581
-1062 -612 -30 -18 -81 -48 -113 -66 -38 -21 -56 -37 -53 -46 3 -8 47 -85 97
-171 50 -87 102 -176 114 -198 13 -22 71 -123 130 -225 59 -102 117 -201 128
-220 178 -314 443 -768 453 -780 8 -8 14 -9 14 -3 0 6 30 62 66 124 37 63 74
128 84 144 9 17 70 122 135 235 65 113 127 221 138 240 11 19 41 72 68 118 27
45 49 87 49 92 0 6 5 10 10 10 6 0 10 4 10 8 0 5 64 119 141 253 78 134 153
264 167 289 14 25 35 61 47 80 12 19 25 42 28 50 4 8 15 29 25 45 10 17 30 50
44 75 14 25 66 115 115 200 273 471 547 947 563 974 9 17 50 87 89 154 40 68
71 125 69 127 -2 1 -25 -11 -53 -28z"/>
<path d="M3726 6950 c46 -77 93 -157 116 -200 14 -25 49 -85 78 -135 29 -49
61 -106 72 -125 11 -19 37 -64 58 -100 21 -36 47 -81 58 -100 10 -19 92 -160
181 -314 88 -153 161 -282 161 -287 0 -5 5 -9 10 -9 6 0 10 -4 10 -9 0 -5 39
-76 86 -158 73 -124 344 -595 412 -713 11 -19 93 -161 182 -315 89 -154 216
-374 283 -490 66 -115 126 -218 132 -228 13 -18 30 6 138 203 16 30 35 62 41
70 6 8 17 26 24 39 8 13 23 39 33 58 38 67 97 171 209 363 62 107 123 213 135
235 13 22 46 81 75 130 29 50 64 110 78 135 14 25 44 77 67 115 22 39 44 77
48 85 4 8 17 31 28 50 12 19 32 53 45 75 l23 40 -251 145 c-138 80 -271 157
-297 171 -25 15 -161 93 -301 174 -375 217 -1288 744 -1340 773 -25 13 -49 28
-55 32 -5 4 -118 69 -250 145 -132 75 -256 147 -275 158 l-34 21 20 -34z"/>
<path d="M3477 6828 c-39 -64 -77 -129 -77 -132 0 -2 -17 -33 -38 -67 -22 -35
-50 -84 -64 -109 -14 -25 -52 -90 -83 -145 -32 -55 -73 -127 -92 -160 -19 -33
-38 -64 -42 -70 -5 -5 -22 -35 -38 -65 -16 -30 -105 -184 -196 -342 -92 -159
-167 -291 -167 -295 0 -3 -6 -14 -14 -22 -7 -9 -25 -36 -38 -61 -14 -25 -108
-189 -210 -365 -102 -176 -193 -333 -202 -350 -9 -16 -21 -37 -26 -45 -25 -39
-130 -221 -130 -225 0 -3 -11 -24 -26 -46 -14 -22 -34 -57 -46 -77 -11 -20
-96 -168 -189 -329 -93 -161 -169 -294 -169 -296 0 -2 839 -4 1865 -4 l1865 0
-19 31 c-17 29 -753 1303 -791 1371 -9 17 -102 176 -205 355 -103 179 -220
381 -260 450 -343 596 -570 988 -581 1003 -12 18 -13 18 -27 -5z"/>
<path d="M6582 4993 c-18 -32 -45 -80 -62 -108 -16 -27 -33 -57 -37 -65 -4 -8
-35 -62 -69 -120 -61 -104 -266 -458 -309 -535 -13 -22 -104 -181 -204 -354
l-181 -314 114 -196 c62 -108 122 -212 133 -231 11 -19 87 -150 168 -290 81
-140 161 -280 178 -310 16 -30 38 -66 47 -80 9 -14 30 -50 47 -80 37 -68 182
-319 198 -342 9 -14 12 333 12 1532 0 853 -1 1550 -1 1550 -1 0 -16 -26 -34
-57z"/>
<path d="M369 5005 c0 -45 0 -2997 0 -3034 1 -23 30 25 290 477 42 73 83 145
92 160 9 15 68 117 131 227 64 110 172 298 241 417 69 119 128 226 132 237 4
14 -12 50 -54 121 -34 55 -61 103 -61 106 0 3 -15 28 -33 57 -18 29 -40 66
-49 82 -8 17 -79 140 -158 275 -78 135 -152 263 -165 285 -52 92 -196 341
-205 355 -5 8 -18 31 -29 50 -10 19 -44 78 -75 130 l-56 95 -1 -40z"/>
<path d="M1668 3372 c-21 -2 -38 -5 -38 -6 0 -2 53 -95 119 -207 65 -112 230
-397 366 -634 137 -236 320 -554 408 -705 87 -151 173 -300 189 -330 17 -30
39 -67 49 -82 11 -14 19 -29 19 -32 0 -3 22 -43 49 -88 62 -106 336 -579 370
-639 110 -197 287 -499 293 -499 4 0 26 33 48 73 23 39 49 86 59 103 35 57
244 419 269 464 26 47 276 480 367 635 29 50 114 198 190 330 75 132 146 252
156 267 11 15 19 30 19 33 0 4 23 45 51 93 29 48 60 101 69 117 21 37 189 329
283 490 38 66 80 138 93 161 12 22 77 134 143 247 l119 207 -51 1 c-230 2
-3610 3 -3639 1z"/>
<path d="M1291 3043 c-63 -109 -164 -283 -224 -388 -121 -210 -203 -352 -217
-375 -18 -32 -234 -406 -247 -430 -8 -14 -23 -38 -33 -55 -11 -16 -24 -40 -29
-52 -6 -12 -22 -41 -37 -63 -16 -24 -24 -44 -18 -50 8 -8 172 -105 283 -168
81 -45 146 -82 161 -92 23 -14 169 -99 220 -128 34 -19 496 -285 685 -394 281
-163 939 -543 1055 -611 194 -112 211 -122 258 -148 20 -12 57 -33 81 -47 25
-14 42 -22 39 -17 -3 6 -66 116 -140 245 -74 129 -202 350 -283 490 -81 140
-158 273 -170 295 -13 22 -98 171 -190 330 -92 160 -175 304 -185 320 -9 17
-126 219 -260 450 -133 231 -252 436 -262 455 -11 19 -37 64 -58 100 -21 36
-48 84 -61 106 -149 260 -245 424 -249 424 -3 0 -56 -89 -119 -197z"/>
<path d="M5458 3043 c-64 -109 -123 -211 -132 -228 -9 -16 -21 -37 -26 -45
-34 -52 -320 -553 -320 -561 0 -5 -4 -9 -10 -9 -5 0 -10 -5 -10 -10 0 -6 -46
-91 -103 -188 -97 -166 -125 -215 -175 -302 -10 -19 -67 -116 -124 -215 -58
-99 -131 -225 -162 -280 -32 -55 -61 -107 -66 -115 -9 -15 -55 -94 -90 -155
-9 -16 -68 -118 -130 -225 -63 -107 -119 -206 -127 -220 -7 -14 -71 -124 -141
-245 -71 -121 -128 -221 -127 -223 2 -2 33 15 69 37 37 23 68 41 70 41 3 0 37
19 78 43 40 24 93 55 118 69 74 42 344 197 360 207 15 10 263 153 349 202 25
14 143 82 261 151 263 152 742 429 790 455 19 11 58 34 85 50 28 17 177 103
333 193 l282 162 -19 32 c-23 38 -264 453 -299 515 -14 25 -38 68 -55 95 -16
28 -37 65 -47 81 -15 28 -126 220 -397 690 -56 98 -107 183 -112 188 -5 5 -58
-76 -123 -190z"/>
</g>
</svg>
